P3
# CREATOR: XV Version 3.10a  Rev: 12/29/94
# CREATOR: XV Version 3.10a  Rev: 12/29/94  Quality = 75, Smoothing = 0
61 64
255
 47  37  35  42  34  31  41  33  30  39  34  30  39  34  30 
 40  35  31  39  36  31  40  37  32  40  36  33  38  34  31 
 55  50  47  38  33  30  55  50  47  60  52  50  31  23  20 
 34  24  22  26  16  14  34  23  19  38  27  23  49  35  32 
 54  40  37  48  33  30  36  21  16  36  21  18  46  27  21 
 50  26  16  57  31  18  57  29  17  68  40  26  33   4   0 
 33   1   0  81  48  33  45   9   0  66  29  11  56  18   0 
 60  19   0  93  51  29 117  72  51 140  94  71 160 112  90 
135  89  66 129  84  65 132  89  70 145 102  83 181 140 120 
177 136 116 133  95  76  96  59  41 106  73  56 126  97  83 
 67  43  31  95  77  67 168 153 146  24  14  12  86  81  78 
128 124 125 101  95  97 139 123 126 141 119 122 143 118 122 
113  86  91  45  36  31  42  35  29  41  34  28  41  34  28 
 40  33  27  41  34  28  40  35  29  41  36  30  42  37  33 
 37  32  28  42  34  31  25  17  14  39  32  26  37  28  23 
 33  22  18  63  50  44  54  41  35  60  45  38  55  38  31 
 53  34  27  52  33  26  45  25  18  38  18   9  45  25  18 
 64  37  26  53  21   0  56  18   0  54  16   0  86  49  23 
132  92  67 188 148 123 120  78  54 121  79  55 117  75  50 
129  85  60 146 102  77 172 128 103 174 128 104 176 130 106 
181 135 111 149 104  81 167 126 106 114  77  58 171 134 115 
123  86  67 202 165 146  88  53  34 120  87  70  96  67  51 
 54  28  15  88  66  55 159 140 133 178 163 158  87  76  72 
 86  78  76  65  59  59 113 104 105 116 100 101 132 112 114 
148 128 130 137 112 116  44  35  30  44  37  31  43  36  30 
 42  35  29  42  35  29  44  35  30  44  37  31  46  39  33 
 48  41  33  41  32  23  43  33  24  66  53  45  48  35  27 
 46  32  23  55  38  30  28  10   0  32  14   4  42  20   9 
 31   9   0  31   7   0  47  21   8  60  34  21  69  41  29 
 85  57  45 107  74  55 113  72  44 135  90  57 156 110  77 
196 150 117 134  88  55 160 113  83 138  91  61 142  95  65 
137  92  61 146 101  72 137  91  65 131  87  62 123  79  54 
122  77  54 118  76  52  85  44  22  97  65  44 104  73  55 
101  70  52 102  73  55  70  41  25  89  62  45 103  77  62 
114  91  77  17   0   0 168 150 140 149 132 125 149 135 132 
147 137 135  29  21  19  93  87  87  88  79  80 113  99  99 
121 105 106 106  87  89 140 120 122  45  36  31  45  36  31 
 44  35  30  43  34  27  43  34  27  44  33  27  46  37  30 
 48  39  32  51  41  32  43  27  14  70  52  38  57  38  24 
 18   0   0  65  43  29 105  82  68  98  72  57 149 123 108 
136 107  91 139 110  92 151 120 102 158 125 106 142 107  88 
115  78  59 106  69  50 117  77  52 155 109  75 198 149 109 
132  80  43 152 102  65 137  87  50 133  83  48 148 100  64 
189 140 107 145  99  66 155 110  79 118  74  47  87  45  20 
 93  52  30 119  81  60 141 105  83 129  96  77 107  81  64 
 58  36  22  51  29  15  90  68  54  46  24  11  39  19   8 
 45  27  17  63  46  38 108  93  86 168 155 149 175 164 160 
152 142 141 107 101 101 116 112 113  40  35  39  85  79  81 
 88  78  79 119 105 105 119 103 104 156 140 141  46  37  32 
 43  34  29  42  33  26  41  30  24  41  30  24  42  31  25 
 46  33  25  49  36  30  54  37  27  36  13   0 147 120 101 
115  88  69 105  77  56 173 142 122 145 114  93 104  72  51 
122  87  65 109  73  49 121  83  60 138  98  73 137  97  72 
120  78  53 121  77  52 164 120  93 217 172 141 170 120  83 
164 112  72 157 105  65 163 111  71 170 118  79 186 136  99 
169 119  82 216 167 134 136  91  58 198 154 125 195 155 129 
156 118  95 124  89  69  97  66  46  80  51  35  57  31  16 
 97  79  67  61  47  36  81  67  58  41  27  18  10   0   0 
 22   9   1 118 107 101 140 129 125 110 100  98 127 119 117 
151 145 145 134 130 131 160 158 161  86  84  87  93  92  97 
 72  67  71  83  74  75  89  77  77  97  85  85 124 110 110 
 50  41  36  59  48  42  43  32  26  53  40  34  46  33  25 
 38  25  17  59  45  36  46  31  24  50  31  17  72  41  20 
110  74  48 125  89  63  93  58  30 175 138 111 184 144 118 
194 152 127 133  92  64 147 103  74 211 166 137 181 134 104 
168 121  91 165 116  84 130  81  49 156 105  74 163 113  80 
215 165 128 140  91  51 137  88  48  93  44   4 140  90  53 
130  82  44 196 150 116 130  85  52 120  79  49 186 149 122 
102  67  45  85  54  34 114  87  70 109  86  72 101  79  68 
121 102  95  33  23  14  36  27  20   6   0   0  53  46  40 
 18  13   9 148 143 140 150 146 145 119 115 116 136 134 137 
135 133 138 161 160 165 155 154 160 141 142 147 103 104 109 
 73  74  79 121 120 125  80  71  72  70  60  59 100  90  89 
117 105 105  48  39  32  40  29  23  28  15   7  58  45  37 
 55  41  32  51  37  28  35  18  10  58  41  33  80  57  43 
 44   8   0 134  93  63 157 116  84 161 118  86 156 113  81 
157 112  81 165 120  89 183 137 104 165 116  84 148  99  67 
111  61  28 150 100  67 137  84  50 125  72  38 136  82  48 
136  83  49 208 160 124 159 113  77 162 116  80 160 114  78 
175 129  93 165 119  85  98  53  20 120  79  49 105  68  41 
 88  54  29 129  98  78 104  77  60 101  79  66  95  77  67 
 44  27  20  78  64  61  71  63  60  41  36  33  62  57  54 
157 153 152 150 149 147 126 124 125 109 109 111 149 148 153 
150 151 156 181 182 187 153 153 161 149 149 157 129 129 137 
 97 100 107  95  95 103  92  91  96 132 126 126  73  63  62 
 65  55  54 121 111 110  47  36  30  45  32  26  51  38  30 
 54  39  32  29  12   4  36  19  11  82  64  54  26   8   0 
112  86  71 153 116  89 197 153 118 183 137 103 195 149 115 
140  94  60 219 173 139 197 151 117 110  61  28 135  86  53 
159 109  76 207 157 124 255 217 184 212 159 127 231 178 146 
223 170 138 199 149 116 160 117  85 146 105  73 155 114  82 
196 155 123 213 170 138 146 103  71 131  90  60 160 121  92 
166 130 104 146 114  93 100  73  56  74  51  37  79  61  51 
 74  59  54 116 105 103  62  52  51  67  59  57 155 149 149 
136 130 130 107 103 104  87  85  88 177 175 180 160 159 164 
134 135 140 151 152 157 146 146 154 120 120 128 182 182 190 
168 169 174 120 121 126 103 102 108 124 122 125 122 113 114 
165 155 154 111 101 100  46  36  35  47  36  30  52  39  31 
 41  27  18  54  37  29  54  36  26  58  40  30  30  10   1 
 87  67  58  62  35  18 100  61  32 123  77  43 147 101  67 
138  92  58 164 118  84 158 112  78 219 173 140 239 193 160 
207 161 128 178 131 101 223 176 146 255 221 191 186 137 107 
159 110  80 151 102  72 186 141 112 150 111  82 129  92  65 
108  71  42 134  95  66 177 138 109 126  85  57 166 127  98 
152 115  88 117  81  57 142 110  89 132 104  90 110  88  75 
142 123 116  87  73  70  44  32  32  95  85  84 162 150 150 
141 129 129 166 154 156 166 156 157 192 183 186 116 111 115 
113 111 116 128 126 131 148 145 152 134 133 139 132 130 135 
155 153 158 143 141 144 173 168 172 132 128 129 158 152 152 
156 147 148 101  91  90 121 111 110 134 124 123  47  36  30 
 51  38  30  55  41  32  40  23  15  56  38  28  28   8   0 
 49  27  16  53  31  20 123  96  79 106  66  40  96  51  18 
114  69  36 240 195 162 173 130  98 188 145 113 163 122  92 
153 112  82 154 113  85 149 107  82 173 131 106 158 116  91 
145 105  80 162 122  97 132  91  69 115  77  54  83  47  23 
138 104  79 148 112  86 114  77  51 121  81  55 120  80  54 
 91  51  25 119  82  56 102  66  42 114  82  61 124  95  81 
 92  68  56  75  55  48 158 143 138 186 172 171 162 148 147 
176 158 156 193 174 170 167 147 146 145 127 127 106  90  91 
151 139 141 148 137 141 129 120 123 153 144 147 150 144 146 
165 156 157 185 177 175 150 142 139 154 144 142  83  74  69 
 77  68  63  89  79  78 125 115 114 160 150 149 105  95  94 
 49  36  28  51  36  29  57  40  32  46  28  18  38  18   9 
 38  16   5  49  27  16 159 135 123 117  88  72 128  91  65 
133  92  62 132  91  61 129  90  59 186 147 118 134  97  70 
138 101  74 145 108  82 132  96  72 108  72  50 125  90  70 
138 103  83 147 114  95 120  87  68  95  62  45 129  96  77 
162 130 109 173 141 118 211 176 154 162 124 101  82  42  17 
 90  50  24 163 123  97 106  66  40  70  32   9  82  45  26 
 93  61  46  85  57  45 143 120 112 194 175 169  95  80  77 
131 113 111 145 120 116 125  96  92 141 113 109 144 119 115 
136 112 110 113  93  92 128 110 110 127 113 112 113  99  99 
 96  82  81  58  44  41  96  83  77  72  57  50  62  48  39 
 78  61  53  83  68  61  80  69  67 142 132 131 123 113 112 
152 142 141  47  34  26  20   5   0  60  43  35  58  40  30 
 32  12   3  74  52  41 142 118 106  98  71  60 121  92  76 
161 126 104 139 102  75 126  90  64 145 109  83 184 148 124 
129  95  70 129  94  72 143 111  90 122  91  73 112  83  67 
104  76  62 111  83  69 113  87  74 141 115 102 162 135 124 
203 175 163 210 181 163 229 197 176  91  56  34  31   0   0 
111  71  46  76  34   9 118  77  49 106  64  39 145 103  79 
194 156 135 143 108  89  98  66  53  92  65  56 105  82  76 
119 100  96 101  77  73 113  80  73 161 124 116 121  87  78 
140 107 100 105  76  72 168 143 139 122  98  94 110  89  84 
 89  68  65 120 101  95 115  96  89 129 111 101 138 119 105 
182 163 148 219 197 183 179 159 148 193 179 176 204 192 192 
192 182 181 235 225 224  45  32  24  55  40  33  43  24  17 
 45  25  16  23   1   0  81  57  47  93  66  55  62  35  24 
163 131 116 114  76  53 189 148 120 144 104  78 112  72  47 
129  92  66 111  75  51  68  33  11  77  44  25  84  53  35 
 50  21   5  62  33  17 176 148 134 200 172 158 206 178 164 
162 134 120 152 123 109 161 128 113 147 111  95  75  38  20 
117  80  62 142 104  85 161 123 104 119  82  63 130  93  74 
140 105  86 103  70  55 180 148 137 136 108  97 112  85  78 
128 104 100  98  77  74  88  64  60 102  75  68 120  91  83 
 59  30  24 109  82  75 132 109 103 183 162 157 132 113 107 
162 143 137 235 216 210 220 201 195 255 236 229 250 232 222 
249 230 216 255 249 234 252 230 216 231 213 201 168 154 151 
250 240 239 250 242 240 218 210 208  52  39  31  55  40  33 
 37  18  11  41  21  12  68  46  35 120  93  84  61  33  22 
 74  44  34  69  32  16  94  47  21 103  50  18 168 117  86 
129  80  50 127  80  54  85  41  16  81  39  15 112  71  49 
 94  56  35  91  55  33  96  60  38 104  68  46 193 157 133 
184 146 123 173 135 112 199 158 138 210 168 154  98  55  46 
112  72  64 113  76  68 133 100  93 180 151 145 204 176 172 
232 208 204 133 112 109 135 114 113 117  96  95 112  90  92 
146 124 126  95  73  75 120  98 100 123 105 105 168 158 156 
238 233 229 193 188 184 152 147 143 186 181 177 253 248 244 
249 244 240 245 237 234 255 253 248 255 248 244 234 223 217 
248 235 227 237 222 215 200 186 177 170 153 145 208 195 186 
190 183 177 207 202 198 229 225 222 255 254 251  52  39  31 
 50  35  28  43  24  17  36  16   7  69  46  38  47  20  11 
 78  50  39 112  82  72  44   7   0  92  41  14 112  55  25 
 95  40  10  83  29   1 122  72  47 120  74  50 181 136 113 
121  80  58 142 104  83 157 119  98 112  74  51 160 122  99 
119  79  54  98  58  32 103  61  36 117  75  53 180 138 126 
234 193 187 189 152 146 176 143 138 150 122 119 127 106 105 
124 106 106  84  70  70 101  89  93 177 165 169 126 111 116 
245 230 235 241 225 228 242 223 227 217 195 198 226 212 212 
201 201 199 217 223 221 195 201 199 192 198 194 205 210 206 
214 216 213 231 232 227 255 255 251 225 222 217 255 254 250 
196 189 183 194 185 180 180 171 166 246 235 229 250 239 233 
255 248 241 231 226 222 194 191 186 218 217 213 240 241 236 
 52  39  31  20   5   0  38  19  12  18   0   0  71  48  40 
 41  14   5  69  40  32 137 109  98 133  97  83 163 117  93 
187 136 107 240 190 163 223 176 150 174 129 106 119  78  56 
134  96  75 156 119 100 107  72  53 128  95  76 154 122 101 
127  95  74 143 108  86 149 113  89 154 118  94 162 125 106 
116  82  70 143 113 103 113  84  76  97  72  67  84  65  59 
 80  65  62 134 123 121 105  97  95 142 133 136 156 150 152 
210 201 204 254 243 247 206 194 196 222 207 210 255 237 239 
255 247 247 251 251 249 178 183 179 135 140 136 143 148 144 
202 204 201 240 242 237 230 231 226 183 182 178 231 228 223 
254 249 245 185 180 176 240 232 229 240 232 229 255 250 245 
255 246 241 255 250 245 252 247 243 229 225 222 216 215 211 
229 230 225  49  36  30  46  29  22  27  10   2  14   0   0 
 73  53  44  70  45  38  47  23  13 117  90  81 114  82  69 
134  93  73 165 120  97 135  93  71 132  91  71 119  81  62 
136 101  82 146 113  96 169 137 122 197 168 152 150 123 106 
114  87  70 169 142 123 198 169 151 122  94  73  82  51  31 
207 178 160 241 215 202 196 174 163  76  58  48  73  56  48 
199 188 182 150 143 137 223 218 214 178 174 171 187 186 184 
 87  85  86 218 214 215 170 164 166 129 119 120 229 217 219 
156 142 142 192 182 181 245 244 240 189 191 186 229 231 228 
182 184 179 109 111 106 161 162 157 239 238 234 174 173 169 
205 202 197 245 242 237 227 224 219 218 213 209 237 232 229 
255 253 249 255 253 250 241 236 232 217 212 209 230 226 223 
184 183 179 255 255 251  42  29  23  28  11   4  15   0   0 
 60  41  34 128 108  99  84  64  55 102  79  71 190 165 158 
124  96  85 158 125 108 132  95  77 111  75  59 144 111  96 
169 137 124 201 173 161 104  78  65 196 172 160 231 209 196 
241 219 206 181 159 146 255 238 225 255 249 237 117  94  80 
162 139 125 245 223 209 225 209 196 106  94  82 218 208 198 
217 210 200 255 255 246 218 218 210 150 151 145  67  69  64 
 92  94  91 204 206 203 228 228 226 173 172 170 225 219 219 
255 249 250 218 208 207 102  94  92  84  80  77 150 151 145 
223 224 219 223 224 218 255 255 250 242 241 236 227 226 222 
251 250 246 246 245 241 188 187 183 162 161 157 165 161 158 
224 220 219 241 237 234 184 180 177 138 134 131 171 167 164 
226 222 219 169 168 166 197 197 195  32  19  13  21   6   1 
 25   8   1  54  37  30 118  99  92  78  59  52 130 112 102 
176 156 147 126 104  93 122  95  84 212 184 172 110  83  72 
131 107  95 169 147 136 219 196 188 224 204 195 228 209 202 
255 251 243 241 227 218 252 235 227 234 217 209 220 203 195 
 73  56  46 200 183 173 250 236 225 248 240 227 177 171 159 
240 236 225 242 239 230 245 246 238 193 196 187 158 163 157 
197 202 196 194 199 195 254 255 253 253 253 251 156 155 153 
196 190 190 204 195 196 223 213 212 168 160 158 227 224 219 
196 195 190 245 244 239 246 245 240 224 223 218 229 228 223 
222 221 217 201 200 196  84  83  79 122 121 117 173 172 170 
167 167 165 149 149 147 197 197 197 160 160 160 167 166 164 
162 158 157 179 175 172 219 218 216 242 242 240  22   9   3 
 34  19  14  17   2   0  45  30  23 126 109 101 178 161 153 
228 211 203 224 210 201 201 184 176 194 175 168 197 178 171 
156 137 131 161 144 137 217 202 195 251 236 231 243 230 224 
245 234 230 255 251 247 233 224 219 208 197 193 105  94  90 
 75  64  60 178 167 161 247 236 230 255 248 239 253 249 238 
155 153 141 249 249 239 254 255 245 249 252 243 215 221 211 
119 124 118 118 123 117 242 244 239 184 186 181 150 150 148 
241 240 238 183 177 177 102  93  94  99  89  90 142 132 131 
202 197 193 149 146 139 174 171 164 172 169 162 145 142 137 
194 191 186 194 193 189 173 172 168 148 148 146 148 148 146 
186 186 186 210 212 211 175 177 176 168 169 171 157 158 160 
206 206 208 192 191 189 153 149 148 201 199 200 169 169 169 
 16   2   0  22   7   2  25  10   5 166 151 146 210 197 189 
223 210 202 230 217 208 255 253 244 228 218 209 116 105 101 
162 151 149 237 226 224 171 160 158 127 117 115  97  87  85 
146 138 135 191 183 180 213 205 203 141 136 132  92  87  84 
 66  61  57 175 170 167 249 244 240 255 254 250 248 245 240 
255 252 245 237 237 229 238 238 230 149 150 142 188 191 182 
171 174 167 157 160 153 134 136 131 146 147 142 164 163 159 
211 207 206 211 205 205 186 177 178  75  65  66  94  82  84 
142 130 130 210 202 199 180 175 169 219 216 209 198 195 188 
 99  96  91 116 113 108 154 153 149 212 213 208 238 238 236 
243 245 242 254 255 255 222 226 225 237 241 242 236 240 241 
226 230 233 168 169 171 128 126 127  64  60  61 127 125 126 
133 133 133  16   2   0  17   2   0  30  15  10 109  96  90 
218 207 201 239 230 223 149 140 131 162 155 147 106  99  93 
 98  93  90 135 129 129 146 140 140 154 148 148 135 129 129 
158 152 152 197 191 191 233 229 226 166 162 161 130 126 123 
171 167 166 161 157 154 147 146 144 183 182 180 212 212 210 
203 202 200 226 225 221 235 232 227 236 233 228 175 174 169 
211 210 205 222 221 216 255 255 250 248 247 242 226 222 219 
226 221 218 204 196 194 255 248 247 250 238 240 202 187 190 
240 223 229 234 219 222 195 187 184 155 150 144 168 163 159 
224 219 215 193 189 186 164 160 157 181 180 178 246 246 244 
255 255 255 247 249 248 254 255 255 245 249 250 247 251 254 
251 255 255 251 255 255 201 205 208 119 117 120  85  81  82 
149 147 148 132 132 132  17   3   0  19   4   1  25  11   8 
 66  55  49 221 212 205 197 190 182 246 242 233 193 190 181 
219 216 211 117 115 116  86  84  87 153 151 154 110 106 107 
252 248 249 189 185 184 192 188 187 252 248 247 255 255 253 
190 189 185 223 222 220 255 255 253 216 216 214 184 184 182 
182 184 183 105 105 103 123 119 118 142 138 135 106 101  98 
 98  95  90 161 156 152 228 223 219 232 227 223 235 230 226 
251 243 241 249 239 238 231 219 219 213 199 199 185 169 172 
112  96  99 241 222 228 205 190 193 255 247 245 242 237 233 
192 187 183 202 198 195 237 233 230 255 255 251 255 255 253 
248 248 246 247 249 248 226 228 227 244 248 249 252 255 255 
251 255 255 235 240 243 237 245 247 240 245 248 175 173 176 
142 137 141 131 129 132 132 132 132  21   6   3  23   9   6 
 21   7   4 107  96  92  52  45  39 126 121 115 202 202 194 
234 235 227 225 226 220 250 250 250 158 158 160  97  97  99 
183 181 182 152 150 151 198 197 195  96  92  91 253 249 246 
246 242 239 227 224 219 221 220 216 203 202 198 225 226 221 
192 193 188 225 227 224 176 176 174  79  75  74 112 106 106 
152 143 144 103  98  95 207 199 197 121 113 111 145 137 134 
196 186 184 187 177 175 157 146 144 148 134 134 189 173 174 
 99  83  86 155 136 140  67  48  54 124 109 114 223 214 215 
255 251 248 226 222 219 247 246 244 255 255 253 239 238 236 
249 249 249 241 241 241 195 197 196 235 237 236 252 255 255 
246 250 249 238 244 244 249 255 255 230 239 238 198 204 204 
169 167 172 226 221 225 214 212 215 133 133 135  23   8   5 
 20   6   3  31  20  16  71  62  57   4   0   0  92  89  82 
115 116 108 240 243 234 239 244 238 249 251 250 210 211 213 
128 128 130 210 208 209 210 209 207 220 216 213 109 106 101 
110 105 101 166 161 155 215 212 205 182 179 172 178 178 170 
165 164 159 155 156 151 107 108 103  84  84  82 154 150 151 
204 198 200 207 198 201 240 231 232 134 126 124 200 192 190 
156 146 144 107  97  95 116 106 104  99  88  86 195 181 181 
137 123 123 165 149 152 200 184 187  84  67  73 212 200 204 
255 253 255 246 245 243 173 171 172 174 173 171 200 198 199 
255 255 255 255 255 255 196 198 197 184 186 185 226 228 227 
248 252 251 252 255 255 251 255 255 251 255 255 241 247 247 
237 241 242 218 216 221 228 223 229 203 201 204 255 255 255 
 24   8   8  27  13  12   8   0   0 101  93  90  11   8   3 
 50  49  44 155 158 151 151 158 150 234 241 234 246 250 249 
217 218 220 215 215 215 158 157 155 143 139 136 222 217 213 
 65  58  52 226 219 211 178 171 161 142 135 125 174 167 159 
175 171 162 204 201 194 175 175 167 135 136 130  88  89  84 
209 204 208 255 253 255 254 248 252 231 225 227 228 222 222 
255 254 251 240 232 229 197 189 186 172 165 159 222 212 210 
143 133 132 114 104 103 100  90  91 194 183 187 149 138 144 
212 203 208 228 223 227 205 205 205 221 221 223 252 252 252 
194 194 196 253 255 254 234 236 235 209 211 210 216 218 217 
236 240 239 251 255 252 250 255 251 244 249 245 235 240 236 
243 247 246 254 255 255 255 254 255 223 218 224 211 209 214 
237 236 241  24   8   8  14   0   0  22  11   9  55  47  44 
  6   3   0  42  43  37  89  94  87 155 165 157 153 162 157 
234 238 237 244 244 244 239 238 236 195 191 188 194 189 185 
200 193 187 142 133 124 211 203 192 255 245 235 223 215 204 
251 243 232 201 194 184 255 255 244 240 237 228 207 207 199 
170 169 165 166 164 167 196 194 199 239 237 240 255 253 254 
254 250 249 243 239 236 253 248 244 255 254 250 246 241 235 
221 216 210 111 106 102 135 130 127 166 160 160 244 238 240 
255 252 255 187 182 186 253 253 255 171 172 174 207 206 211 
254 255 255 185 186 188 233 234 236 232 233 235 254 255 255 
252 255 255 244 248 247 249 254 250 238 243 239 252 255 253 
247 252 248 252 255 253 243 245 242 222 220 223 202 197 203 
255 254 255 248 247 252  22   6   6  29  15  14  10   0   0 
  4   0   0  40  39  35  27  29  24  56  63  56 128 139 131 
168 177 172 145 149 148 213 213 213 255 255 253 233 230 225 
192 185 179 249 240 231 207 197 187 195 185 173 133 121 109 
215 205 193 193 183 171 191 183 170 176 170 158 200 196 185 
124 122 110 123 122 117 175 175 177 243 242 247 255 255 255 
244 242 243 255 255 253 255 255 251 243 240 235 249 246 241 
253 250 243 196 193 186 214 213 208 226 225 221 241 241 239 
255 255 255 247 247 249 194 194 196 216 217 221 183 187 190 
224 225 230 217 221 224 164 168 171 216 220 221 237 241 242 
212 216 217 220 224 223 153 157 156 164 166 163 172 174 171 
205 207 202 168 170 165 194 196 191 195 195 193 218 216 219 
255 253 255 239 237 242 217 216 221  20   6   3  18   4   1 
 15   5   3  22  17  14  35  34  30   8  10   7  41  47  43 
118 129 123 136 145 142 162 164 163 127 127 127 120 119 117 
139 135 132 165 160 156 219 212 204 154 145 138 242 233 224 
166 157 148 169 161 150 176 167 158 132 125 115 144 140 131 
124 120 111 201 198 191 196 195 190 242 240 241 226 224 227 
235 233 236 234 232 233 175 174 172 192 191 187 233 229 226 
243 240 235 208 205 200 211 210 205 255 255 250 244 245 240 
245 245 243 254 255 255 244 244 244 242 243 245 189 193 196 
186 189 194 239 242 247 239 242 247 211 215 218 187 191 194 
208 212 213 175 179 180 206 210 211 186 190 189 199 201 200 
111 113 110 104 106 103 103 105 100 175 177 172 156 157 152 
255 254 255 224 222 225 193 191 192 178 178 178  18   5   0 
 16   5   0  16   7   2   4   0   0  25  24  22  10  12  11 
 40  44  45  88  96  98 130 135 138 190 191 193 154 154 156 
 96  96  96  82  80  81 102 100 101 229 228 226 192 188 187 
180 176 175 217 213 212  94  90  87 162 158 157 127 126 124 
179 178 176 182 181 179  80  79  77  99  98  96 152 146 146 
123 114 115 106  97  98 193 184 185 247 239 237 195 187 185 
231 226 223 248 243 240 229 224 221 220 216 213 251 247 244 
255 254 250 255 255 251 250 250 248 225 224 222 253 253 253 
252 253 255 249 252 255 241 245 248 252 255 255 202 203 207 
199 200 204 173 174 178 161 162 164 147 148 150 189 190 192 
253 253 255 166 166 166 134 134 134 102 102 102  87  87  87 
188 189 184 198 199 193 222 223 215 223 224 218 245 246 240 
 20  10   1   9   0   0  21  14   8  11   6   2  54  53  51 
 12  12  14  24  28  31  64  69  73 130 135 139 153 154 158 
157 157 159 148 148 150  94  94  96  78  78  80 158 158 160 
233 233 235 173 173 175 162 162 164 185 185 187 237 237 239 
111 111 113 186 186 188 179 179 181 226 226 228  83  81  82 
 68  59  60  74  64  63  89  77  77  45  35  34 118 108 107 
221 213 211 134 126 124 215 210 207 255 254 251 200 196 193 
255 254 251 200 199 195 234 233 229 244 243 239 255 255 251 
238 238 236 254 255 255 215 218 223 162 166 169 188 192 195 
229 230 234 221 222 226 119 120 124 160 161 165 204 205 207 
206 207 209 237 237 239 213 213 215 179 179 181 121 121 123 
 72  72  72 148 148 146 171 172 164 229 231 220 222 224 213 
218 220 209  17   6   0   9   0   0  19  12   6  11   6   2 
 70  69  67  22  22  22  15  19  22  40  45  49 115 118 123 
157 158 162 163 163 165 147 147 149 195 195 197 134 134 136 
106 106 108  97  97  99 138 138 140 125 125 127 234 234 236 
191 191 193 236 236 238 144 144 146 144 144 146 200 200 202 
136 134 135 208 202 202 117 108 109  52  42  43  58  49  50 
 77  68  69  52  46  46 201 195 195 158 152 152 237 231 231 
213 209 208 234 230 229 204 203 201 172 171 169 187 187 185 
219 219 217 255 255 255 228 229 231 185 189 192 139 143 146 
175 179 182 224 228 231 194 198 201  94  98  99 174 178 179 
218 219 221 241 242 244 248 249 251 248 249 251 222 223 225 
195 196 198  91  92  94 104 106 105 113 114 108 114 115 107 
216 217 209 212 213 205   8   0   0  14   5   0  10   2   0 
  4   0   0  48  47  45  36  36  36  15  19  20  32  35  40 
 84  88  91 156 157 161 134 134 136 163 163 165 153 153 155 
182 182 184 154 154 156 104 104 106 133 133 135 202 202 204 
240 240 242 241 241 243 233 233 235 246 246 248 139 139 141 
203 203 205 134 132 133 189 183 185 150 144 144  92  86  86 
 35  29  29  53  47  47  63  59  58  96  92  91 186 182 181 
201 197 196 255 255 253 171 170 168 249 249 247 230 230 228 
180 180 178 166 166 164 159 161 160 195 199 200 205 209 212 
160 164 167 220 224 227 199 203 206 155 159 162 194 198 199 
219 223 224 217 221 222 252 255 255 254 255 255 250 254 255 
241 242 244 252 255 255 120 121 123 147 149 148 132 132 130 
132 133 128  99 100  95  98  99  94   8   0   0  16   7   2 
  6   0   0   4   0   0  13  12  10  41  41  41   8  12  13 
 31  34  39  54  58  61  78  79  83  63  63  65 126 126 128 
125 125 127 158 158 160 196 196 198 161 161 163 111 111 113 
159 159 161 243 243 245 255 255 255 253 253 255 251 251 253 
168 168 170 216 216 218 215 213 214 151 147 148 145 141 140 
177 173 172 153 149 148  77  73  72  42  41  39  61  60  58 
 97  96  94 196 195 193 213 213 211 238 238 236 199 201 198 
247 249 246 251 253 250 188 190 187 195 197 196 211 215 216 
163 169 169 226 232 232 189 195 195 154 160 160 231 237 237 
222 228 228 251 255 255 250 255 255 251 255 255 245 249 250 
248 254 254 249 253 254 241 247 247 111 115 116 229 233 234 
248 250 249 240 240 240 160 160 160  55  55  55  13   4   0 
 12   2   0   8   3   0  14  10   9   1   0   0  41  41  43 
  0   1   3  29  33  36  40  44  47  75  76  78  76  76  78 
 38  38  40  83  83  85  74  74  76 113 113 115 132 132 134 
172 172 174 130 130 132 209 209 211 185 185 187 250 250 252 
247 247 249 213 213 215 242 242 244 255 255 255 255 253 254 
206 205 203 233 232 230 246 246 244 208 207 205  74  74  72 
 52  52  50  77  79  76  61  61  59 137 139 136 221 223 220 
254 255 253 254 255 253 203 205 202 250 252 249 208 212 211 
204 208 207 230 236 234 224 230 230 210 216 216 209 215 215 
241 247 247 251 255 255 245 251 251 251 255 255 250 255 255 
251 255 255 251 255 255 251 255 255 224 230 230 112 118 118 
214 218 219 221 222 226 199 198 203 148 147 152 186 186 188 
 15   5   3  11   1   0  10   5   2  12   8   7   2   1   0 
 50  50  52  10  11  13  27  31  32  37  41  42  45  46  48 
 87  87  89  75  75  77  67  67  69  93  93  95  69  69  71 
 99  99 101 165 165 167 110 110 112 209 209 211 221 221 223 
255 255 255 206 206 208 238 238 240 255 255 255 255 255 255 
252 252 252 253 253 253 182 182 182 250 252 251 238 238 238 
204 206 205 116 118 117 116 120 119 122 124 123 143 147 146 
175 179 178 252 255 255 237 241 240 242 246 245 252 255 255 
249 253 252 231 235 234 252 255 253 251 255 255 251 255 255 
251 255 255 251 255 255 247 253 251 245 251 249 238 247 246 
245 254 253 249 255 255 247 255 255 249 255 255 236 245 244 
165 174 173 130 135 138 228 229 234 142 141 147  89  88  94 
156 155 161   9   0   0  12   4   2   8   3   0   3   0   0 
 11  11  11  64  64  64  32  33  35  29  33  34  39  40  42 
 68  68  70  58  58  60  80  80  82 112 112 114  52  52  54 
 63  63  65  38  38  40 127 127 129  86  86  88  91  91  93 
192 192 194 226 226 228 212 212 214 237 237 239 255 255 255 
244 244 246 243 245 244 228 232 231 217 219 218 250 254 253 
254 255 255 244 248 247 146 150 149 117 121 120 103 107 106 
111 115 114 103 107 106 141 145 144 173 177 176 252 255 255 
225 229 228 225 229 228 247 252 248 202 207 203 225 230 226 
235 241 237 236 242 240 231 237 235 217 223 221 240 246 244 
244 250 250 235 244 243 235 244 243 234 243 242 247 255 255 
244 253 252 226 235 234  92  97 100 203 204 209  94  93 101 
 89  88  96 171 170 176   7   0   0  10   1   2  21  15  15 
  3   0   0   0   0   0 162 162 162  84  86  85  19  21  20 
 50  52  51  45  45  47  46  46  48  62  62  64 100 100 102 
 69  69  71  54  54  56  29  29  31 111 111 113 160 160 162 
 35  35  37  44  44  46 190 190 192 203 203 205 167 167 169 
215 215 217 203 204 206 240 244 243 235 241 239 202 206 205 
238 244 242 225 229 228 232 236 235 130 134 133 147 151 150 
247 251 250 152 156 155  74  78  77  57  61  60 154 158 157 
136 140 139  97 101 100 120 124 123 110 112 109  30  32  27 
 54  56  51 154 159 153 109 114 110 215 220 216 156 161 157 
193 199 195 183 189 187 150 156 154 162 171 170 146 155 154 
128 138 137 175 185 184 195 205 206 118 126 128 136 137 142 
 87  86  94  73  72  80 195 194 200  18   8   7  17   8   9 
  3   0   0   1   0   0 150 150 150 113 115 114  79  81  80 
 27  29  28  34  36  35  94  94  96  62  62  64  55  55  57 
 32  32  34  48  48  50  57  57  59  71  71  73  75  75  77 
112 112 114  83  83  85  53  53  55  76  76  78 204 204 206 
166 166 168 178 178 180 155 156 158 158 162 161 129 135 133 
105 111 109 107 113 111 215 221 219 169 175 173 124 128 127 
 91  95  94 125 129 128 175 179 178  61  65  64  41  45  44 
107 111 110  97 101 100 188 190 189  66  68  67 177 179 174 
 66  67  62  53  54  49  50  52  47  62  64  59 182 184 181 
157 159 156 177 182 178 161 165 164 165 171 169 150 156 156 
143 152 151 168 177 176 220 230 229 241 251 252 155 163 165 
201 202 207  91  90  96 109 108 114 160 159 165  16   7   8 
  5   0   1  42  38  39 183 181 182 158 158 158  37  39  38 
154 156 155   0   1   0  38  40  39  22  22  24 142 142 144 
141 141 143  90  90  92  44  44  46  46  46  48  49  49  51 
 86  86  88 111 111 113 173 173 175  45  45  47  64  64  66 
  7   7   9 218 218 220 212 212 214 162 163 165 132 136 137 
125 131 131 151 157 157 126 132 132  82  88  88 113 119 119 
173 177 178  54  58  59  64  65  67 107 108 110  81  82  84 
 12  13  15  48  49  51 186 187 189  93  93  95  80  80  80 
 48  47  43 167 166 161  70  69  64  70  69  64  75  74  69 
139 140 135 162 162 160 194 196 193 177 181 180 197 203 201 
144 150 150 190 199 198 195 203 205 211 219 221 173 181 183 
104 109 112 102 103 107 110 109 114 133 132 137 138 138 140 
 10   1   2  19  13  15 148 146 147  95  93  94 140 140 140 
 54  56  55 150 152 149  36  38  35  35  37  34  44  44  44 
 66  66  68  57  57  59 108 108 110  50  50  52  48  48  50 
 58  58  60  75  75  77  81  81  83 122 122 124  97  97  99 
 62  62  64  65  65  67 133 133 135 211 211 213 229 230 232 
136 140 141 206 212 212 156 162 162 136 142 142 118 124 124 
 92  98  98  57  61  62  97 101 102  92  93  95 158 159 161 
 57  58  60  42  42  44  20  20  22 143 143 145 146 146 148 
168 166 167  89  86  81 136 131 125  76  71  65  61  58  53 
 51  48  43 213 212 207 222 221 217 168 168 166 156 158 157 
177 181 180 181 185 186 178 184 184 138 143 146  90  98 100 
 88  96  98  74  79  82  53  54  56  75  75  75  88  88  88 
 87  87  87  49  40  43 176 170 174 160 158 161 151 149 152 
125 125 125 134 134 134  97  97  95  84  84  82  25  25  23 
 54  54  54  86  86  88  66  66  68  59  59  61  84  84  86 
 58  58  60  67  67  69  75  75  77  93  93  95 139 139 141 
136 136 138  83  83  85  39  39  41  39  39  41 110 110 112 
172 173 175 180 184 185 160 166 166 195 199 200 183 187 188 
170 174 175 102 106 107  78  79  81  87  88  90 182 182 184 
146 146 148 115 115 117  57  55  58   1   0   2 110 108 111 
174 172 175 131 127 128 162 154 151  74  67  59  82  75  67 
135 130 124 154 149 145 135 132 127 144 140 137 195 194 190 
187 187 185 179 181 180 167 168 170 205 209 210 110 114 117 
143 148 151  80  85  89  80  84  87 178 180 177 215 216 211 
134 135 130 160 161 156 125 116 119 138 132 136 142 140 143 
124 124 126 134 134 134 134 134 134  72  72  70 143 144 139 
 31  31  29  35  35  35  87  87  89 145 145 147 133 133 135 
 43  43  45  48  48  50  92  92  94  75  75  77  82  82  84 
 72  72  74  99  99 101 166 166 168 114 114 116  35  35  37 
 45  45  47 151 152 154 195 199 200 145 151 151 193 197 198 
171 175 176 167 171 172 133 137 138  98  99 101  44  45  47 
123 123 125  83  83  85  98  96  99  79  77  80  16  14  17 
114 109 113 135 130 134 129 123 125 198 189 184 212 203 196 
155 146 139 182 175 167 255 254 248 244 239 235 202 197 194 
212 208 205 167 166 164 147 147 145 156 156 158 206 207 209 
 72  73  77 109 113 116  84  87  92 174 178 179 234 236 231 
243 244 236 250 251 243 209 210 202 163 154 157 159 154 158 
131 129 132 120 120 122 126 126 126 188 188 188  68  68  66 
158 159 154  12  12  10  47  47  47  22  22  24  38  38  40 
113 113 115  58  58  60  63  63  65  49  49  51  87  87  89 
 43  43  45  86  86  88  44  44  46  65  65  67  73  73  75 
 64  64  66  14  14  16  92  93  95 211 215 218 196 200 203 
181 185 188 217 221 224 233 234 238 220 221 225 139 138 143 
100  99 104 146 144 149 134 132 137 125 120 126 113 108 114 
 10   5  11  83  76  83  50  43  50 177 168 171 190 179 175 
116 106  97 107  96  90  99  90  83  81  72  67 176 168 165 
188 183 180 225 221 218 195 191 190 128 127 125 152 152 154 
101 102 104 137 138 142 122 126 129 198 201 206 252 255 255 
244 247 240 243 245 234 224 226 215 235 237 226 149 140 145 
133 128 134 112 110 115 148 147 152 137 137 139 124 124 124 
100 100  98 154 154 152  15  15  13  48  48  48  20  20  22 
 96  96  98 113 113 115  59  59  61  68  68  70  80  80  82 
 51  51  51  78  78  78  55  53  54  91  89  90  98  96  97 
106 104 105 123 121 122 125 123 124  72  70  71  76  78  77 
227 228 230 252 253 255 249 250 252 250 251 253 255 255 255 
214 213 218 169 168 173 166 164 169 118 116 121  93  91  96 
100  98 103  59  54  60 126 121 125 108 103 107 162 156 158 
140 129 127  86  73  67  97  86  80 111 100  94  79  68  64 
 62  53  48 193 184 179 242 234 231 149 141 138 189 184 181 
163 159 158 111 109 110 157 157 159 222 223 225 233 237 240 
205 206 208 171 172 166 150 151 143 121 121 113 111 112 104 
156 146 155 108 102 112 162 159 168 120 119 125 171 172 177 
178 179 183 147 148 150 163 165 164  42  42  42  43  43  45 
 43  41  44  42  40  41  55  53  54  86  84  85  69  67  68 
 49  47  48  77  76  74  93  92  90 116 112 111 122 117 114 
138 133 130 128 120 117 149 141 138 158 150 147 176 171 167 
108 107 102  68  69  64 188 189 184 226 226 224 255 255 253 
244 244 244 212 212 214 181 181 183 119 118 123  98  97 102 
 99  99 101  93  93  95  10  10  12 187 187 187 180 182 181 
134 133 131 130 120 119 152 141 139 138 124 123 111  97  94 
 68  55  49 104  91  83  92  79  71 117 104  96 226 216 207 
238 229 222 193 185 182 127 123 120 102 101  99 151 151 149 
147 149 148 140 142 141 128 127 125 131 130 128 103  99  98 
 92  91  89 121 114 122 159 156 165 165 164 172 177 177 185 
144 145 150 133 134 138 166 166 168 108 108 108  59  59  59 
  9   7  10 119 117 120  34  32  33  77  75  76  40  38  39 
 82  81  79 109 108 106 132 131 127 149 145 142 148 143 140 
133 125 122 137 129 126 125 116 111 136 127 122 127 116 112 
128 119 114 182 177 171 105 105  97  66  63  58  56  55  50 
166 162 159 214 213 211 206 204 205 138 138 140  79  77  82 
109 109 111  74  74  76 154 156 155  69  69  69  95  97  94 
145 147 144 205 205 203 155 147 145 138 126 126 108  96  96 
 92  78  77  75  62  56  40  25  18 116 101  94 122 108  99 
148 135 126 245 235 226 225 216 209 196 191 187 116 112 109 
 98  98  96  80  82  81  68  70  69  64  62  63  98  96  97 
 97  93  94  87  85  86 117 114 121 151 151 159 124 124 132 
109 112 119 133 134 139 150 149 154 157 155 158  85  81  82 
 60  56  55  36  34  35 194 192 193 152 150 151 132 130 131 
 90  89  87  60  59  57  88  84  83  68  64  61  74  69  66 
 69  64  60  59  51  48  68  60  57  69  60  55  85  76  71 
 85  74  70  87  78  73 113 109 100 166 163 154 110 105  99 
 39  36  31  84  79  76 106 102 101 154 150 151 121 119 120 
 43  38  42 126 124 127  64  62  65 133 133 133  44  42  43 
 71  71  69 112 112 110 135 134 130 220 214 214 223 213 212 
187 177 176  90  79  77  67  53  50  75  62  56  27  14   6 
 49  36  28  34  21  13  75  66  59 121 114 108 176 171 167 
106 102  99  96  96  94  56  58  57  75  77  76  76  76  78 
 73  73  75  69  67  70  84  84  86 174 177 182 172 177 183 
141 146 150 134 137 142 140 141 145 132 130 133 135 129 131 
 85  76  77 130 121 122  30  26  27  65  63  64 125 123 124 
129 128 126 179 178 176  79  75  74  50  46  43  77  72  69 
 59  54  50  63  58  54  69  61  58  73  65  62  71  62  57 
 78  69  64  91  80  76 106  97  92  67  60  52  84  77  69 
 72  65  59 108 101  95 137 129 126  57  52  49  78  72  72 
112 106 108 175 169 171  89  85  86  86  82  83  39  35  34 
 74  70  69  33  32  28  97  96  92  57  56  52  84  78  78 
139 130 131 158 149 150 160 150 149  90  79  77  69  58  54 
 62  51  45  40  29  23  46  35  29  76  67  62  43  36  30 
174 171 166 227 223 220 194 193 191 149 149 149  95  97  96 
 93  94  96  54  55  57  71  72  74  97  98 100 142 150 152 
103 113 115 154 164 166  96 101 105 130 131 135 139 133 137 
125 114 118 156 141 144 130 116 116  39  33  33  42  38  37 
 48  44  43  32  28  27 112 108 107 170 165 162  77  72  69 
 54  46  44  60  52  49  63  55  52  72  62  60  71  61  59 
 66  57  52  59  50  45  72  63  58  86  77  72  89  80  73 
113 104  95 138 129 122 128 119 114  99  89  87  53  43  42 
 64  54  55  80  71  72 123 114 115  64  58  58  78  72  72 
 50  44  44  75  69  69  49  45  42  73  69  66  71  67  64 
111 105 105  90  84  84  66  60  60 105  97  95 173 165 163 
 81  71  69  40  30  28  64  55  50  51  42  37  91  83  80 
 72  67  63  57  53  50 148 144 143 197 196 194 175 175 175 
205 207 206 171 175 176 109 113 116 121 125 128 123 127 130 
 94 106 106 129 143 143 109 121 121 122 127 130 120 120 122 
143 134 137 142 127 130  90  70  72  72  53  55   7   0   0 
 26  22  19  42  38  37  67  62  59  55  50  47  82  74  72 
 72  64  62 152 144 142  69  59  57  58  48  46  62  52  50 
 63  53  51  77  68  63  70  61  56  76  67  62  78  69  62 
 84  74  65  37  27  18  58  45  39  72  61  55  73  62  58 
 69  58  56  59  47  47  58  48  49 108  98  99 160 151 152 
128 118 119  59  51  49 150 142 140 111 106 102 117 109 106 
 56  51  48  70  64  64  57  51  53  80  74  76  74  68  68 
 65  59  59  85  77  75  48  40  38  71  63  60  20  12   9 
 50  42  39  64  59  56  60  55  52  66  62  61  98  97  95 
195 194 192 196 196 196 200 204 205 195 200 203 239 244 247 
229 234 237 107 122 119 129 145 142 118 130 128 128 134 134 
145 143 144 146 134 136  98  78  80 145 118 123 165 140 143 
 35  24  22  27  22  18  35  30  27  51  43  40  60  52  49 
 79  69  67  64  54  52  79  69  67  95  84  82  71  60  58 
 67  56  54  62  51  49  81  72  67  67  58  53  68  61  55 
 63  54  47  68  55  47  61  48  39  73  58  51  60  47  41 
 63  49  46  91  77  76  73  59  59  41  29  29  50  38  40 
170 160 161  88  76  76  89  79  78  77  67  66  74  66  63 
111 101  99 166 158 155  40  36  37 160 156 157  81  77  78 
 92  88  87  80  76  75 136 130 130  80  74  74  43  38  35 
129 124 121   8   3   0  38  33  30  35  30  27  11   7   4 
 74  70  67 112 108 105 108 108 106 175 179 180 206 214 216 
219 227 229 173 181 183 102 119 113  99 114 109 102 113 109 
123 127 126 124 120 119 127 111 112  85  60  63 157 126 131 
157 128 132  64  50  49  23  15  12  34  26  23  61  51  49 
 60  50  48 112 101  99  71  57  56  95  81  80  96  82  81 
 72  58  57  67  56  54  58  47  45  74  65  60  57  48  43 
 64  57  51  64  55  48  73  60  52  60  46  37  59  44  37 
 85  70  65  84  70  67  63  49  48  70  56  56 110  96  96 
113 101 103 143 131 133  62  50  50  69  57  57  68  58  57 
 64  54  52  67  57  55  62  54  51 155 151 152 153 151 154 
100  96  97  79  75  76  69  65  64 100  96  95  61  55  55 
 87  81  81  57  52  49  32  27  24  36  31  28  33  28  25 
 38  33  30  73  68  64  57  52  49  99  98  96  94  98  99 
107 115 117  82  90  92  81  87  87 148 163 156 146 159 152 
144 153 148 147 148 143 151 143 140 189 169 170 107  78  80 
127  92  96 157 127 129  82  67  64  33  26  20  28  19  14 
 67  56  52  86  72  69  41  27  24  72  57  54  82  67  64 
 69  54  51  76  61  58  85  71  70  76  65  63  72  62  60 
 76  66  64  65  57  54  59  52  46  58  47  41  66  53  45 
 71  58  52  72  59  53  71  57  54  73  59  58  76  64  64 
 81  69  71 182 170 172 105  93  95  62  52  53  69  59  58 
 59  49  48  70  60  58  93  85  82  66  61  58  62  58  57 
 82  80  81 104 102 103 142 140 141 128 126 127  95  93  94 
 42  38  37  63  59  58  48  43  40  39  34  31  43  35  32 
 48  40  37  34  26  23  67  60  54  73  63  61  67  62  59 
 88  90  89  79  85  85  98 104 104  65  69  68 128 139 133 
131 140 135 134 136 131 134 129 125 158 144 141 139 115 115 
108  76  77 121  82  85 121  89  90 134 119 114   9   0   0 
 27  16  12  65  51  48 100  85  82  89  71  69  65  47  45 
 82  64  62  88  68  67  79  61  59  67  51  51  53  39  38 
 51  40  38  58  50  47  54  49  45  53  46  40  71  60  54 
 67  56  50  62  51  45  62  51  47  64  53  51  59  47  47 
 51  39  41  47  37  38 125 114 118 195 185 186 118 107 111 
 73  64  65  43  34  35  69  61  59  63  55  53  69  64  61 
 96  92  91  88  87  85  78  76  77  52  50  51  85  83  84 
 95  93  94  46  42  41  78  74  73  68  63  60  50  42  40 
 36  28  25  38  29  24  41  30  26  65  54  48  75  62  56 
 77  68  63  69  68  66  79  83  82  91  93  92  81  83  80 
146 148 143 132 133 128 143 138 134 172 161 157 183 164 160 
118  90  89 109  75  74 141 101 102 122  88  87 114  97  90 
 16   7   0  18   7   1  74  61  55  73  55  51  44  25  21 
 75  56  52  80  61  57  78  57  56  76  56  55  68  52  52 
 63  49  48  63  52  50  68  60  57  73  68  64  75  70  64 
 64  55  48 116 107 100 122 113 108  76  66  64  61  51  50 
 78  69  70  76  67  70  53  44  47  67  58  63 123 117 119 
125 119 123 123 117 119  59  53  53  66  62  61  71  67  66 
 67  63  60  78  74  73  70  66  63 176 175 173 162 161 159 
101 100  98  93  92  90  76  72  71  75  71  70  36  31  28 
 35  27  25  37  27  25  51  40  36  76  63  55  74  59  52 
 66  49  41  59  46  38  68  63  59  87  86  82  82  81  77 
 91  90  86 153 148 144 150 142 139 105  94  90 113  95  91 
102  78  74 111  80  78 134  95  96 179 137 139 138 102 102 
104  87  80  35  25  16  30  17   9 100  85  78  92  73  69 
 56  35  32  82  61  58  44  23  20  68  47  46  81  61  60 
 83  65  65  82  68  67  66  55  53  47  39  36  48  43  39 
 46  43  38  78  71  65  59  52  46  41  36  32  60  55  52 
 85  79  79  68  62  64  41  36  40  42  37  41  11   6  12 
116 111 115 162 160 165 191 189 192 164 162 163  57  55  56 
 80  80  80 114 113 111  62  58  55 103  99  96  98  94  91 
154 153 149  97  96  94 125 124 122  43  39  38 124 119 116 
 39  31  29  54  44  42  47  36  32  50  35  28  78  61  53 
 79  61  51  88  66  55  89  71  61  67  58  51  73  68  62 
 72  67  63  88  83  79 116 105 103  98  83  80 111  92  88 
154 128 127 154 124 122 152 116 116 137  97  97 141  99 100 
128  93  91 142 123 116  39  29  19  51  38  29  78  64  55 
 68  49  43  74  53  48  69  45  43  94  70  68  69  45  45 
 72  51  50  62  42  43  73  57  57  70  59  57  58  50  47 
 72  67  64  72  69  64  75  72  67  49  46  41  31  27  24 
 63  59  58  98  96  97  75  73  76  45  43  48  60  58  63 
 67  66  72  46  45  50 171 172 177 153 154 158 176 177 181 
173 174 176  67  68  70  70  70  68  72  68  65  84  79  75 
 78  73  69  97  94  89  88  84  81  60  56  53  54  49  46 
 87  82  79  92  84  81 123 112 108  98  85  77  79  62  54 
 74  54  45  69  47  34  83  57  44  82  60  47  84  70  61 
 69  58  52  82  73  66  94  85  78 102  84  82 130 109 106 
139 111 108 125  94  92 142 107 105 131  93  92 147 105 106 
107  65  66 115  80  78 135 116 109  64  51  42  38  24  15 
 72  55  47  73  52  47  71  47  43  94  68  67 161 135 134 
172 146 147 138 117 116  78  58  59  71  55  55  67  56  54 
 51  43  40  65  60  57  54  53  49  30  29  25  70  71  66 
 64  64  62  42  42  42  57  57  59  62  63  67  49  50  55 
 51  52  57  40  41  46  38  41  46  71  74  79 151 156 160 
142 147 151 157 162 165 178 183 186  92  94  93  86  83  78 
 58  53  47  65  60  54  63  58  54 148 145 140 106 102  99 
127 122 119  62  54  51  59  50  45 102  91  85  86  71  64 
 99  81  71  85  61  49  93  67  54 109  81  67 110  84  71 
107  89  79  76  62  53  82  69  60  84  71  63 121  97  97 
114  86  85 143 112 110 159 123 123 177 139 138 148 108 108 
175 134 132 143 102 100 158 125 120 107  89  79 118 106  94 
 67  53  44 126 109 101 165 144 139 141 117 113 131 105 104 
141 115 114 169 143 144 138 114 114  75  55  56  76  60  60 
 73  63  61  52  47  43  70  66  63  59  58  54  61  63  58 
 61  63  60  34  36  33  37  39  38  75  76  78  65  69  72 
 34  37  42  40  45  51  48  53  59  69  74  80  43  48  54 
 95 103 106 177 185 188 195 203 205 189 197 199 173 177 176 
178 175 168 115 108 100  79  75  66 116 111 105  14   9   5 
 81  76  72 119 111 108  86  78  75  91  82  77 111  98  90 
 76  59  51 116  96  85  78  52  39  81  53  39  89  57  42 
 86  58  44  95  73  60  79  61  51  74  57  47  90  73  65 
126  96  96 148 114 113 137  98  99 156 116 117 147 107 107 
150 110 111 176 137 138 158 119 120 128  97  95 102  82  75 
172 155 147 173 154 147 149 126 120 163 135 132 174 144 142 
120  89  87 159 127 128 137 107 107 133 104 106  95  74  73 
111  93  93  98  86  86  60  52  50  71  67  66  58  58  56 
 43  45  42  66  71  67  40  44  43  20  22  21  55  56  58 
 65  66  68  39  40  44  33  34  38  56  59  64  55  58  63 
127 130 135  63  68  71 104 109 112 134 142 144 122 131 130 
139 143 142 137 136 132 107 104  97  55  52  47  56  53  48 
 74  70  67  92  88  85  71  67  64 125 120 117  60  52  49 
 77  68  63  63  50  44 160 143 135 120 100  91 111  89  78 
 88  64  52  73  49  37  80  56  44 101  79  66 104  84  73 
152 134 122 126  90  90 144 104 104 142 100 102 159 119 120 
160 121 124 174 139 143 146 114 119 130 101 106 108  82  85 
137 113 113 144 118 117 147 119 116 147 116 114 156 121 119 
166 126 126 159 117 118 144 102 103 166 126 127 211 177 178 
119  90  92  84  62  64  69  54  57  79  70  73  55  50  54 
 54  54  54  58  60  59  77  79  76  85  87  84  48  48  46 
 38  37  35  61  57  56  48  42  42  29  23  23  39  33  33 
109 105 104  49  45  44  32  30  31  56  58  57 136 138 137 
137 141 140 148 152 151 147 148 150 192 193 195 168 169 171 
 73  74  76  94  95  97  50  51  53 115 116 118  93  93  93 
118 118 118  99  98  96  51  47  44 111 106 103 200 192 189 
173 165 162  81  73  70 116 103  95 158 136 123  99  73  56 
122  99  83 155 133 119 128  90  89 141 101 101 152 110 111 
159 119 120 148 112 114 142 110 115 118  89  94 114  87  94 
122  95 100 150 121 123 152 122 122 164 130 129 180 145 143 
189 147 148 172 128 129 142  94  94 114  68  68 151 107 108 
212 173 174 181 149 150 144 119 122 183 167 170  52  41  45 
 52  47  51  61  61  63  38  40  39  74  76  73  83  83  81 
 55  54  52  35  31  28  44  39  36  58  50  47  53  43  41 
 44  34  32  99  91  88  68  63  60  34  30  27  53  52  50 
104 104 102 107 109 106 105 107 106  83  87  90  80  85  88 
 88  91  96  81  85  88  57  61  64  57  61  64  82  86  89 
149 150 152 120 121 123  92  94  93  88  88  88  15  15  15 
 97  97  97 159 159 159  81  81  81  85  78  72 105  83  70 
117  90  71 165 139 122  80  57  41 109  75  74 126  91  89 
148 110 109 144 105 106 138 102 104 128  96  99 123  92  97 
124  95  99 155 126 130 161 131 131 152 121 119 155 121 120 
171 133 132 175 133 134 161 117 116 148 100 100 142  96  96 
144 100 101 132  93  94 138 106 107 135 110 113  92  76  77 
103  92  96  86  81  85  49  49  51  48  50  49  81  83  80 
 92  92  90  70  69  67  44  40  37  37  32  29  48  40  38 
 47  39  37  44  36  34  74  66  64  75  70  67  30  26  23 
 47  46  44  87  87  85 110 112 109 112 114 113  94  95  97 
 51  55  56  50  51  55 100 101 103  68  69  71  76  77  79 
 47  48  50  59  59  59 119 119 119 120 120 120 121 119 120 
 15  14  12  35  34  32 155 154 152 115 114 112  93  84  79 
157 138 124  97  71  54  68  42  27  70  47  31 